<svg xmlns="http://www.w3.org/2000/svg" width="600" height="600" viewBox="0 0 600 600">
<g>
<path d="M 443.50 341.64 C426.41,346.20 408.11,337.15 400.18,320.22 C397.90,315.34 397.50,313.17 397.50,305.50 C397.50,297.70 397.88,295.67 400.37,290.28 C403.43,283.66 410.95,275.63 417.03,272.48 C431.95,264.77 450.93,268.33 462.37,280.99 C472.53,292.23 474.24,307.81 466.96,322.70 C462.34,332.14 454.06,338.83 443.50,341.64 ZM 320.62 333.59 L 320.94 341.58 L 318.22 341.72 C316.72,341.80 314.49,341.46 313.25,340.97 L 311.00 340.06 L 311.00 308.28 C311.01,278.71 311.14,276.28 312.93,273.35 C315.89,268.50 319.83,267.69 337.87,268.25 C354.82,268.78 358.09,269.54 365.36,274.68 C371.30,278.88 372.94,281.59 374.29,289.46 C375.92,298.97 374.31,305.70 368.96,311.80 C366.69,314.38 363.90,316.74 362.76,317.02 C358.05,318.21 358.41,320.32 364.83,328.85 C368.20,333.33 370.40,337.01 369.73,337.02 C368.80,337.03 368.82,337.23 369.78,337.85 C372.13,339.33 370.01,342.00 366.48,342.00 C362.86,342.00 362.21,341.36 353.50,329.10 L 348.50 322.06 L 334.87 322.03 C333.84,322.03 332.88,322.02 331.99,322.02 C325.57,321.98 322.61,321.96 321.32,323.42 C320.21,324.67 320.32,327.00 320.52,331.32 C320.55,332.02 320.58,332.78 320.62,333.59 ZM 127.19 340.60 C127.45,342.06 126.64,342.38 122.27,342.54 L 117.03 342.73 L 113.94 336.11 C112.23,332.48 110.00,327.92 108.97,326.00 L 107.11 322.50 L 86.04 322.23 L 64.96 321.96 L 60.93 330.66 C56.76,339.63 54.15,342.83 52.77,340.66 C52.22,339.80 52.03,339.82 52.02,340.74 C52.01,341.44 50.94,341.89 49.57,341.78 C48.24,341.67 47.34,341.26 47.58,340.86 C47.83,340.47 47.35,340.00 46.53,339.83 C45.43,339.58 49.51,330.46 62.44,304.31 C79.67,269.45 79.86,269.12 83.28,268.47 C83.59,268.42 83.89,268.36 84.18,268.30 C85.65,268.01 86.80,267.79 87.87,267.98 C91.79,268.67 94.72,274.90 109.19,303.68 C118.92,323.03 127.02,339.65 127.19,340.60 ZM 429.04 331.90 C431.50,332.37 435.98,332.53 439.00,332.25 C443.77,331.81 445.23,331.11 450.00,327.01 C463.51,315.39 464.90,298.60 453.33,286.84 C447.20,280.60 441.82,278.62 432.64,279.22 C421.68,279.93 414.77,284.34 410.25,293.50 C407.40,299.27 406.73,304.37 408.01,310.55 C410.21,321.15 418.86,329.93 429.04,331.90 ZM 554.78 341.44 C550.25,344.61 547.67,343.54 542.33,336.25 C539.61,332.54 531.14,320.95 523.52,310.50 C515.89,300.05 508.56,290.01 507.22,288.18 C505.89,286.36 504.59,285.08 504.33,285.33 C504.08,285.59 503.91,297.32 503.97,311.40 C504.03,328.37 503.71,337.00 503.03,337.00 C502.46,337.00 502.00,337.48 502.00,338.07 C502.00,339.94 499.61,341.52 496.30,341.83 L 493.10 342.14 L 493.03 309.65 C492.94,273.58 493.32,271.13 499.19,269.08 C502.87,267.80 503.93,268.30 507.11,272.80 C517.14,287.01 545.21,324.56 546.00,324.83 C546.61,325.03 547.07,314.59 547.23,296.83 L 547.50 268.50 L 552.25 268.20 L 557.00 267.89 L 557.00 339.89 ZM 321.83 310.01 C322.03,310.60 328.11,311.00 336.87,311.00 C350.14,311.00 352.01,310.78 356.02,308.75 C361.87,305.78 364.47,301.23 364.47,293.94 C364.47,287.19 362.53,283.82 357.03,281.01 C353.57,279.25 351.14,279.00 337.59,279.00 L 322.10 279.00 L 321.80 294.01 C321.64,302.27 321.65,309.47 321.83,310.01 ZM 203.50 333.50 L 203.50 342.50 L 180.50 342.71 C165.26,342.86 156.75,342.56 155.27,341.82 C153.06,340.72 151.40,337.59 151.83,335.33 C151.95,334.68 151.59,333.87 151.03,333.52 C150.36,333.11 150.00,322.36 150.00,303.01 C150.00,277.19 150.21,272.93 151.57,271.57 C152.44,270.71 152.77,269.97 152.32,269.93 C150.49,269.77 155.70,268.14 158.24,268.07 L 160.97 268.00 L 161.50 332.50 ZM 256.98 308.02 L 257.00 341.54 L 252.05 341.52 L 247.11 341.50 L 247.03 310.56 C246.98,293.54 246.85,279.52 246.72,279.39 C246.60,279.27 242.00,279.05 236.50,278.91 C230.82,278.76 226.18,278.18 225.77,277.57 C225.36,276.98 225.02,274.59 225.02,272.25 L 225.00 268.00 L 235.25 268.02 C247.66,268.05 252.83,269.13 255.18,272.19 C256.80,274.30 256.96,277.45 256.98,308.02 ZM 71.00 310.01 C71.00,311.27 99.66,311.36 100.44,310.10 C100.75,309.60 98.55,304.24 95.55,298.19 C92.56,292.14 89.43,285.57 88.60,283.59 C87.78,281.62 86.73,280.00 86.29,280.00 C85.42,280.00 71.00,308.31 71.00,310.01 Z" fill="rgb(82,106,123)"/>
<path d="M 320.62 333.59 C320.58,332.78 320.55,332.02 320.52,331.32 C320.32,327.00 320.21,324.67 321.32,323.42 C321.51,323.21 321.73,323.02 322.00,322.87 L 322.00 343.00 L 311.00 343.00 L 311.00 340.06 L 313.25 340.97 C314.49,341.46 316.72,341.80 318.22,341.72 L 320.94 341.58 ZM 59.81 333.00 L 55.11 343.00 L 49.55 343.00 C46.50,343.00 44.00,342.66 44.01,342.25 C44.01,341.84 52.08,325.21 61.93,305.31 C64.29,300.54 66.34,296.40 68.13,292.80 C66.47,296.14 64.59,299.96 62.44,304.31 C49.51,330.46 45.43,339.58 46.53,339.83 C47.35,340.00 47.83,340.47 47.58,340.86 C47.34,341.26 48.24,341.67 49.57,341.78 C50.94,341.89 52.01,341.44 52.02,340.74 C52.03,339.82 52.22,339.80 52.77,340.66 C54.02,342.63 56.29,340.18 59.81,333.00 ZM 503.97 315.93 L 504.06 343.00 L 493.10 343.00 L 493.03 310.08 C493.02,307.72 493.02,305.50 493.02,303.42 C493.02,305.38 493.02,307.45 493.03,309.65 L 493.10 342.14 L 496.30 341.83 C499.61,341.52 502.00,339.94 502.00,338.07 C502.00,337.48 502.46,337.00 503.03,337.00 C503.65,337.00 503.97,329.91 503.97,315.93 ZM 357.64 334.87 C362.56,341.58 363.54,342.00 366.48,342.00 C370.01,342.00 372.13,339.33 369.78,337.85 C368.82,337.23 368.80,337.03 369.73,337.02 C370.36,337.01 368.47,333.79 365.46,329.70 C365.68,329.99 365.91,330.30 366.14,330.61 C370.24,336.05 373.94,341.06 374.36,341.75 C374.93,342.70 373.65,343.00 369.09,343.00 L 363.06 343.00 L 359.19 337.17 C358.72,336.46 358.20,335.68 357.64,334.87 ZM 151.57 271.57 C150.24,272.90 150.01,277.01 150.00,301.42 L 150.00 268.00 L 160.97 268.00 L 158.24 268.07 C155.70,268.14 150.49,269.77 152.32,269.93 C152.77,269.97 152.44,270.71 151.57,271.57 ZM 257.00 341.54 L 257.00 343.00 L 247.00 343.00 L 247.00 302.56 C247.01,305.12 247.02,307.80 247.03,310.56 L 247.11 341.50 L 252.05 341.52 ZM 437.38 332.35 C438.64,332.01 440.21,331.44 442.57,330.58 C445.34,329.58 448.41,327.99 450.61,326.47 C450.41,326.65 450.21,326.83 450.00,327.01 C445.23,331.11 443.77,331.81 439.00,332.25 C438.49,332.30 437.95,332.33 437.38,332.35 ZM 152.79 339.41 C152.40,338.91 152.04,338.38 151.74,337.87 C150.24,335.25 150.01,331.63 150.00,304.51 C150.02,322.92 150.38,333.12 151.03,333.52 C151.59,333.87 151.95,334.68 151.83,335.33 C151.59,336.58 152.00,338.11 152.79,339.41 ZM 460.74 309.43 C461.98,301.47 459.52,293.13 453.33,286.84 C459.78,293.39 462.20,301.51 460.74,309.43 ZM 233.19 278.77 C226.95,278.64 226.52,278.50 225.91,277.69 C226.62,278.13 229.46,278.54 233.19,278.77 ZM 504.34 285.33 C504.11,285.61 503.95,296.26 503.96,309.87 C503.93,296.48 504.09,285.58 504.33,285.33 ZM 364.87 328.90 L 364.83 328.85 C360.86,323.57 359.20,320.75 359.64,319.09 C359.26,320.72 360.88,323.52 364.87,328.90 ZM 327.63 322.02 C328.87,322.00 330.31,322.01 331.99,322.02 L 331.99 322.02 C332.88,322.02 333.84,322.03 334.87,322.03 L 348.50 322.06 L 348.88 322.60 L 348.50 322.08 L 335.25 322.04 ZM 61.96 328.44 L 64.96 321.96 L 65.00 321.96 ZM 158.36 342.35 C156.81,342.23 155.83,342.09 155.49,341.92 C155.47,341.91 155.46,341.90 155.44,341.89 C155.94,342.08 156.91,342.23 158.36,342.35 ZM 87.87 267.98 C89.16,268.20 90.35,269.03 91.87,271.08 C90.35,269.03 89.16,268.20 87.87,267.98 C87.61,267.93 87.34,267.91 87.06,267.91 C87.34,267.91 87.61,267.93 87.87,267.98 Z" fill="rgb(92,109,123)"/>
<path d="M 289.00 268.00 L 289.00 279.00 L 268.00 279.00 L 268.00 268.00 Z" fill="rgb(133,177,187)"/>
<path d="M 0.00 300.00 L 0.00 0.00 L 300.00 0.00 L 600.00 0.00 L 600.00 300.00 L 600.00 600.00 L 300.00 600.00 L 0.00 600.00 L 0.00 300.00 ZM 60.06 332.48 L 65.00 321.96 L 86.06 322.23 L 107.11 322.50 L 108.97 326.00 C110.00,327.92 112.23,332.48 113.94,336.11 L 117.03 342.73 L 122.27 342.54 C126.64,342.38 127.45,342.06 127.19,340.60 C127.02,339.65 118.92,323.03 109.19,303.68 C89.99,265.49 91.10,267.01 83.29,268.47 C79.88,269.11 79.67,269.47 61.93,305.31 C52.08,325.21 44.01,341.84 44.01,342.25 C44.00,342.66 46.50,343.00 49.55,343.00 L 55.11 343.00 L 60.06 332.48 ZM 203.50 338.00 L 203.50 333.50 L 182.50 333.00 L 161.50 332.50 L 161.24 300.25 L 160.97 268.00 L 155.49 268.00 L 150.00 268.00 L 150.00 301.42 C150.00,331.37 150.18,335.15 151.74,337.87 C152.70,339.54 154.39,341.37 155.49,341.92 C156.71,342.53 166.56,342.85 180.50,342.71 L 203.50 342.50 L 203.50 338.00 ZM 256.98 308.75 C256.96,277.48 256.80,274.30 255.18,272.19 C252.83,269.13 247.66,268.05 235.25,268.02 L 225.00 268.00 L 225.02 272.25 C225.02,274.59 225.36,276.95 225.77,277.50 C226.63,278.68 226.45,278.66 238.00,278.85 L 247.00 279.00 L 247.00 311.00 L 247.00 343.00 L 252.00 343.00 L 257.00 343.00 L 256.98 308.75 ZM 322.00 332.50 L 322.00 322.00 L 335.25 322.04 L 348.50 322.08 L 351.91 326.71 C353.79,329.26 357.06,333.96 359.19,337.17 L 363.06 343.00 L 369.09 343.00 C373.65,343.00 374.93,342.70 374.36,341.75 C373.94,341.06 370.24,336.05 366.14,330.61 C358.36,320.29 357.86,318.26 362.76,317.02 C363.90,316.74 366.69,314.38 368.96,311.80 C374.31,305.70 375.92,298.97 374.29,289.46 C372.94,281.59 371.30,278.88 365.36,274.68 C358.09,269.54 354.82,268.78 337.87,268.25 C319.83,267.69 315.89,268.50 312.93,273.35 C311.14,276.29 311.01,278.73 311.00,309.75 L 311.00 343.00 L 316.50 343.00 L 322.00 343.00 L 322.00 332.50 ZM 443.50 341.64 C454.06,338.83 462.34,332.14 466.96,322.70 C474.24,307.81 472.53,292.23 462.37,280.99 C450.93,268.33 431.95,264.77 417.03,272.48 C410.95,275.63 403.43,283.66 400.37,290.28 C397.88,295.67 397.50,297.70 397.50,305.50 C397.50,313.17 397.90,315.34 400.18,320.22 C408.11,337.15 426.41,346.20 443.50,341.64 ZM 503.97 314.39 C503.92,298.66 504.09,285.58 504.34,285.33 C504.59,285.07 505.89,286.36 507.22,288.18 C508.56,290.01 515.89,300.05 523.52,310.50 C531.14,320.95 539.61,332.54 542.33,336.25 C547.67,343.54 550.25,344.61 554.78,341.44 L 557.00 339.89 L 557.00 303.89 L 557.00 267.89 L 552.25 268.20 L 547.50 268.50 L 547.23 296.83 C547.07,314.59 546.61,325.03 546.00,324.83 C545.21,324.56 517.14,287.01 507.11,272.80 C503.93,268.30 502.87,267.80 499.19,269.08 C493.31,271.13 492.95,273.54 493.03,310.08 L 493.10 343.00 L 498.58 343.00 L 504.06 343.00 L 503.97 314.39 ZM 289.00 273.50 L 289.00 268.00 L 278.50 268.00 L 268.00 268.00 L 268.00 273.50 L 268.00 279.00 L 278.50 279.00 L 289.00 279.00 L 289.00 273.50 ZM 71.00 310.01 C71.00,308.31 85.42,280.00 86.29,280.00 C86.73,280.00 87.78,281.62 88.60,283.59 C89.43,285.57 92.56,292.14 95.55,298.19 C98.55,304.24 100.75,309.60 100.44,310.10 C99.66,311.36 71.00,311.27 71.00,310.01 ZM 321.83 310.01 C321.65,309.47 321.64,302.27 321.80,294.01 L 322.10 279.00 L 337.59 279.00 C351.14,279.00 353.57,279.25 357.03,281.01 C362.53,283.82 364.47,287.19 364.47,293.94 C364.47,301.23 361.87,305.78 356.02,308.75 C352.01,310.78 350.14,311.00 336.87,311.00 C328.11,311.00 322.03,310.60 321.83,310.01 ZM 429.04 331.91 C418.84,329.91 410.21,321.14 408.01,310.55 C406.73,304.37 407.40,299.27 410.25,293.50 C414.77,284.34 421.68,279.93 432.64,279.22 C441.82,278.62 447.20,280.60 453.33,286.84 C463.89,297.57 463.58,314.26 452.63,324.87 C450.71,326.74 446.35,329.21 442.57,330.58 C435.34,333.21 435.56,333.18 429.04,331.91 Z" fill="rgb(239,242,251)"/>
</g>
</svg>