<?xml version="1.0" encoding="UTF-8"?>
<svg width="169px" height="27px" viewBox="0 0 169 27" version="1.1" xmlns="http://www.w3.org/2000/svg" xmlns:xlink="http://www.w3.org/1999/xlink">
    <title>Altron Logo Dark</title>
    <g id="Page-1" stroke="none" stroke-width="1" fill="none" fill-rule="evenodd">
        <g id="Altron---Leadership-page--01" transform="translate(-135, -39)" fill-rule="nonzero">
            <g id="Altron-Logo-Dark" transform="translate(135, 39)">
                <path d="M9.5238252,17.0246305 L19.7831048,17.0246305 L14.6163833,6.05172414 L9.5238252,17.0246305 L9.5238252,17.0246305 Z M21.5444871,20.8454993 L7.76862315,20.8454993 L5.14200037,26.5103 L0,26.5103 L11.2666667,2.98656516 C11.9959408,1.46305419 13.5595538,0.489699955 15.2776742,0.489699955 L16.9339916,0.489699955 L29.3625526,26.5103 L24.2143719,26.5103 L21.5444871,20.8454993 Z" id="Shape" fill="#1F4659"></path>
                <path d="M51.321119,22.5322436 L51.321119,26.5163457 L38.9543609,26.5163457 C37.2671421,26.5163457 35.9012982,25.1802508 35.9012982,23.5297806 L35.9012982,0.489699955 L40.2645822,0.489699955 L40.2645822,22.5322436 L51.321119,22.5322436 Z" id="Path" fill="#1F4659"></path>
                <path d="M84.4845493,12.8833408 L91.3632108,12.8833408 C94.255586,12.8833408 96.115853,11.1361397 96.115853,8.68763995 C96.115853,6.23914017 94.255586,4.4919391 91.3632108,4.4919391 L84.4845493,4.4919391 L84.4845493,12.8893865 L84.4845493,12.8833408 Z M90.6710185,16.8795343 L84.4845493,16.8795343 L84.4845493,26.5103 L80.1212653,26.5103 L80.1212653,3.4520824 C80.1212653,1.81370354 81.4809289,0.489699955 83.1496069,0.489699955 L91.6166027,0.489699955 C96.7400622,0.489699955 100.5533,3.92364532 100.5533,8.72391402 C100.5533,12.2727273 98.3963796,15.1021048 95.1455476,16.2810121 L101.288755,26.5103 L96.3877857,26.5103 L90.6710185,16.8795343 Z" id="Shape" fill="#1F4659"></path>
                <path d="M131.714317,13.5 C131.714317,8.12539185 127.629146,4.11106135 122.14105,4.11106135 C116.652953,4.11106135 112.549241,8.1677116 112.549241,13.5 C112.549241,18.8322884 116.652953,22.8889386 122.14105,22.8889386 C127.629146,22.8889386 131.714317,18.8685625 131.714317,13.5 M108.105613,13.5 C108.105613,5.79175996 114.063412,0 122.14105,0 C130.218687,0 136.151764,5.78571429 136.151764,13.5 C136.151764,21.2142857 130.206327,27 122.14105,27 C114.075773,27 108.105613,21.2021944 108.105613,13.5" id="Shape" fill="#1F4659"></path>
                <path d="M169,0.489699955 L169,24.5515002 C169,25.6336767 168.103858,26.5163457 166.991406,26.5163457 L165.14968,26.5163457 L149.834924,7.93193014 L149.834924,26.5163457 L145.286231,26.5163457 L145.286231,3.35535155 C145.286231,1.77138379 146.596453,0.489699955 148.215688,0.489699955 L149.464107,0.489699955 L164.463668,18.7657859 L164.463668,0.489699955 L168.99382,0.489699955 L169,0.489699955 Z" id="Path" fill="#1F4659"></path>
                <path d="M62.9029804,0.489699955 L51.4138234,0.489699955 L51.4138234,4.47380206 L61.3949899,4.47380206 L61.3949899,26.5163457 L65.7582739,26.5163457 L65.7582739,3.28884908 C65.7582739,1.7411554 64.4789541,0.489699955 62.8968001,0.489699955" id="Path" fill="#1F4659"></path>
                <rect id="Rectangle" fill="#54B8DF" x="67.8657524" y="0.489699955" width="8.17652222" height="3.9841021"></rect>
            </g>
        </g>
    </g>
</svg>