<svg width="265" height="66" viewBox="0 0 265 66" fill="none" xmlns="http://www.w3.org/2000/svg">
<g clip-path="url(#clip0_4053_81)">
<path d="M29.9464 56.0259L29.4555 58.1202C30.4474 57.9854 31.4393 57.8299 32.421 57.664C33.0141 57.5603 33.5969 57.4566 34.19 57.353C36.1636 56.9901 38.1167 56.5858 40.0698 56.1296C40.4583 56.0467 40.8367 55.9534 41.2253 55.8601C42.2069 55.6216 43.1784 55.3832 44.1498 55.1343C44.4975 55.041 44.8349 54.9581 45.1826 54.8648C45.6121 54.7508 46.0415 54.6367 46.471 54.5227C46.7676 54.4397 47.0641 54.3568 47.3606 54.2739C47.6367 54.2013 47.9026 54.1183 48.1787 54.0458L48.5775 52.5218C42.483 54.1598 36.2454 55.4557 29.9464 56.0259ZM66.6564 8.54333C66.7076 8.53296 66.7689 8.5226 66.82 8.50186C66.7689 8.51223 66.7076 8.5226 66.6564 8.53296V8.54333ZM75.5528 42.1959C75.5221 42.2166 75.4812 42.227 75.4505 42.2477L75.5732 42.1959H75.5528Z" fill="white"/>
<path d="M76.0845 43.2844H76.0334C76.0027 43.3155 75.9516 43.3363 75.9209 43.357H75.9004L75.8493 43.3881L75.7266 43.4503C75.7164 43.4503 75.7061 43.4607 75.6959 43.4607C75.43 43.5851 75.1642 43.7199 74.8983 43.8443C74.2234 44.1657 73.5383 44.487 72.8532 44.7981C72.6282 44.9017 72.4033 45.0054 72.1885 45.1091C72.1578 45.1298 72.1169 45.1402 72.0863 45.1506C71.9533 45.2128 71.8204 45.275 71.6772 45.3372C71.4932 45.4201 71.3091 45.503 71.125 45.586C70.4297 45.897 69.7241 46.208 69.0186 46.519C68.7323 46.6435 68.4459 46.7679 68.1596 46.8923C68.0778 46.9234 68.0062 46.9545 67.9244 46.9959C67.6483 47.11 67.3722 47.2344 67.0961 47.3484C66.861 47.4521 66.6155 47.5454 66.3804 47.6491C66.1861 47.732 65.9918 47.815 65.7873 47.8875C65.6543 47.9497 65.5112 48.0016 65.3782 48.0534C65.1737 48.1364 64.9692 48.2193 64.7647 48.3022C64.7647 48.3022 64.7442 48.3022 64.734 48.3126C64.55 48.3852 64.3761 48.4577 64.1921 48.5303C63.7115 48.7273 63.2309 48.9139 62.7502 49.1005C62.5048 49.1938 62.2594 49.2871 62.014 49.3804C61.4311 49.6085 60.8381 49.8262 60.245 50.044L59.8462 48.8413C64.9794 46.9959 70.0002 44.8395 74.9085 42.4758C74.929 42.4758 74.9494 42.455 74.9699 42.4447C75.1131 42.3721 75.246 42.3099 75.3891 42.2373H75.3994L75.5221 42.1751L75.5937 42.144V42.1647L75.6346 42.2788L76.0231 43.2637L76.0845 43.2844Z" fill="white"/>
<path d="M76.289 43.1911L76.4117 43.1289C76.7491 42.963 77.107 42.7868 77.3729 42.6624C77.4138 42.6416 77.4547 42.6209 77.4854 42.6002L76.289 43.1911ZM75.6345 42.1544L67.0859 10.1814L67.0552 10.0466C66.5644 10.1503 66.0838 10.2539 65.593 10.368H65.5623C61.38 11.3736 57.2488 12.5659 53.1688 13.9344C53.1381 13.9344 53.1074 13.9551 53.0768 13.9655C45.7041 16.4951 40.3049 18.9833 40.08 19.087L40.5299 17.677C40.5299 17.6563 40.5401 17.6148 40.5606 17.5837L40.6628 17.2727C40.5094 17.3452 40.3867 17.3971 40.3049 17.4385C40.2845 17.4385 40.2538 17.4593 40.2333 17.4696C30.0895 22.0417 19.7105 27.3912 11.08 34.524C5.75246 38.9301 -5.53665 50.0025 3.9732 56.057C10.1904 60.0174 22.3282 59.0739 29.3942 58.1098H29.4964L29.9872 56.0156C23.4735 56.6065 12.4298 56.8242 7.07157 52.5321C0.343095 47.1515 7.97143 38.9923 12.4196 35.1668C18.7799 29.6824 27.0218 25.0897 34.5683 21.4922C36.3783 20.6317 38.2087 19.7505 40.1004 19.087L29.9872 56.0156C36.2862 55.4454 42.5137 54.1391 48.6184 52.5114L54.6311 30.1386L59.9279 48.8517C65.0612 47.0063 70.082 44.8499 74.9903 42.4861C75.0108 42.4861 75.0312 42.4654 75.0517 42.455C75.1948 42.3825 75.3278 42.3203 75.4709 42.2477H75.4812C75.5118 42.227 75.5527 42.2062 75.5834 42.1855H75.5936L75.6652 42.1544H75.6345Z" fill="#09569B"/>
<path d="M96.6892 30.7814C90.8401 35.3845 84.3468 39.1789 77.7001 42.4861H77.6694C77.649 42.5069 77.6286 42.5276 77.5979 42.538H77.5876C77.5672 42.5587 77.5365 42.5691 77.5161 42.5794C77.5058 42.5794 77.4956 42.5898 77.4752 42.6002L76.2788 43.1911C76.2072 43.2222 76.1458 43.2533 76.0743 43.2844L75.6857 42.2995L75.6448 42.1855V42.1647H75.6652L75.7266 42.1336L75.7675 42.1129C75.7879 42.1129 75.8084 42.0922 75.8288 42.0818L75.9209 42.0403C75.9924 42.0092 76.0538 41.9781 76.1254 41.947L76.2992 41.8641C76.3503 41.8433 76.3912 41.8226 76.4424 41.8019L76.6469 41.6982L76.698 41.6775H76.7185C76.9537 41.5738 77.1991 41.4494 77.4547 41.325C78.6818 40.7133 80.1032 39.8632 81.0439 39.3448C85.85 36.7219 90.8094 33.6427 95.0633 30.1697C99.358 26.6655 107.774 18.6723 102.968 12.711C98.315 6.95711 84.4082 7.54805 77.7922 8.28414C74.1825 8.6781 70.6035 9.39345 67.045 10.0777L66.6564 8.58479C66.7076 8.57442 66.7689 8.56406 66.82 8.54332C71.1659 7.53768 75.5425 6.59425 79.96 6.01368C86.9441 5.09098 100.554 4.06461 106.25 8.88544C114.226 15.6346 101.884 26.7173 96.6687 30.8228L96.6892 30.7814Z" fill="#09569B"/>
<path d="M81.8824 65.284H64.6522L60.2859 50.0647C60.8789 49.847 61.4618 49.6293 62.0549 49.4012C62.3003 49.3079 62.5457 49.2146 62.7911 49.1213C63.2717 48.9347 63.7524 48.7481 64.233 48.5511C64.417 48.4785 64.5909 48.4059 64.7749 48.3334C64.7749 48.3334 64.7954 48.3334 64.8056 48.323C65.0101 48.24 65.2146 48.1571 65.4191 48.0742C65.5521 48.0223 65.6952 47.9601 65.8282 47.9083C66.0224 47.8254 66.2167 47.7528 66.4212 47.6698C66.6564 47.5662 66.9019 47.4729 67.137 47.3692C67.4131 47.2552 67.6892 47.1307 67.9653 47.0167C68.0471 46.9856 68.1187 46.9545 68.2005 46.913C68.4868 46.7886 68.7732 46.6642 69.0595 46.5398C69.765 46.2288 70.4604 45.9178 71.1659 45.6067C71.35 45.5238 71.5341 45.4409 71.7181 45.3579C71.8511 45.2957 71.984 45.2335 72.1272 45.1713C72.1578 45.1609 72.1987 45.1402 72.2294 45.1298C72.4544 45.0262 72.6793 44.9225 72.8941 44.8188C73.5792 44.5078 74.2541 44.1864 74.9392 43.865C75.2051 43.7406 75.4709 43.6162 75.7368 43.4814C75.7368 43.4814 75.7573 43.4814 75.7675 43.4711C75.7982 43.4503 75.8493 43.4296 75.8902 43.4088L75.9413 43.3881H75.9618C75.9925 43.3674 76.0334 43.3466 76.0743 43.3259H76.1049C76.1049 43.3052 76.1152 43.3052 76.1254 43.3052L81.9131 65.3048L81.8824 65.284Z" fill="#676968"/>
<path d="M66.6564 8.54333C54.7231 11.1041 43.1374 16.153 40.6424 17.2727H40.6321V17.2519L45.2132 0.695221H64.4783C64.6011 1.18249 64.734 1.68012 64.8669 2.16739C64.9487 2.45768 65.0305 2.74796 65.1123 3.03825C65.6441 4.87328 66.2167 6.71867 66.6564 8.54333Z" fill="#676968"/>
<path d="M48.2094 54.0354L47.8004 55.5283C47.8004 55.5387 45.1212 65.284 45.1212 65.284H27.5024L29.3635 58.1202H29.4658C30.4577 57.9854 31.4495 57.8299 32.4312 57.664C33.0243 57.5603 33.6072 57.4566 34.2002 57.353C36.1738 56.9901 38.1269 56.5858 40.08 56.1296C40.4686 56.0467 40.8469 55.9534 41.2355 55.8601C42.2171 55.6216 43.1886 55.3832 44.16 55.1343C44.5077 55.041 44.8451 54.9581 45.1928 54.8648C45.6223 54.7507 46.0518 54.6367 46.4812 54.5227C46.7778 54.4397 47.0743 54.3568 47.3709 54.2738C47.647 54.2013 47.9128 54.1183 48.1889 54.0458H48.2094V54.0354Z" fill="#676968"/>
<path d="M162.655 59.5509C162.164 64.4857 156.192 65.1907 152.327 64.6723C149.433 64.2784 146.192 62.2049 148.482 59.0118C148.656 61.0852 150.476 61.7073 152.225 61.9872C154.495 62.3397 158.79 62.5989 159.577 59.7167C160.548 56.1504 156.734 56.057 154.433 55.4661C151.233 54.6367 146.948 53.7659 147.245 49.4116C147.623 43.9479 154.986 43.2119 159.025 44.3419C161.336 44.9847 163.013 46.8301 161.796 49.339C161.704 49.5152 161.632 49.8055 161.387 49.764C161.203 48.6651 160.395 47.6906 159.393 47.2551C157.041 46.2495 149.76 45.9903 150.394 50.1062C150.548 51.1014 152.184 51.765 153.022 52.0241C157.665 53.4445 163.33 52.6358 162.655 59.5509Z" fill="#0B0B0D"/>
<path d="M178.085 53.9835C177.942 52.1174 176.603 50.5001 174.823 50.0232C173.709 49.7226 170.621 49.7433 169.424 49.8781C167.778 50.0647 166.213 51.2569 165.692 52.8639C165.232 54.2427 165.313 58.7525 165.416 60.3595C165.579 62.6921 167.277 64.5064 169.588 64.6931C172.921 64.9626 177.738 65.0144 178.085 60.5668C178.218 58.8044 178.228 55.746 178.085 53.9939V53.9835ZM175.508 60.0277C175.365 60.9504 174.465 62.1012 173.545 62.3189C172.788 62.5055 170.314 62.4537 169.608 62.1634C168.637 61.7591 168.044 60.5668 167.962 59.5508C167.87 58.3793 167.829 55.041 168.115 54.025C168.371 53.1231 169.281 52.2937 170.201 52.1589C170.876 52.0552 173.003 52.0552 173.617 52.2315C174.496 52.4803 175.314 53.2993 175.478 54.222C175.652 55.1654 175.641 59.0636 175.498 60.0277H175.508Z" fill="#0B0B0D"/>
<path d="M234.132 54.0769C233.999 52.3663 232.844 50.7178 231.238 50.1476C230.042 49.7226 226.79 49.7329 225.471 49.8781C223.651 50.0854 222.107 51.3503 221.636 53.1542C221.289 54.4916 221.35 59.0221 221.463 60.5461C221.636 62.7958 223.446 64.5065 225.635 64.6723C229.183 64.9523 233.784 65.0041 234.132 60.3388C234.255 58.6385 234.265 55.7564 234.132 54.0561V54.0769ZM231.535 60.007C231.136 62.5678 228.467 62.6196 226.422 62.3915C225.277 62.2671 224.264 61.2407 224.06 60.1107C223.866 59.0429 223.917 55.8393 224.009 54.6782C224.111 53.5067 224.96 52.3663 226.146 52.1693C226.749 52.0656 229.019 52.076 229.592 52.2107C230.441 52.4181 231.197 53.1749 231.443 54.0147C231.688 54.8337 231.668 59.074 231.525 60.0174L231.535 60.007Z" fill="#0B0B0D"/>
<path d="M121.2 53.1334C120.822 51.6509 119.472 50.355 118.01 50.0025C116.905 49.7329 113.868 49.7433 112.682 49.8781C111.026 50.0647 109.481 51.2466 108.95 52.8639C108.49 54.2427 108.571 58.7526 108.674 60.3595C108.837 62.6922 110.535 64.5065 112.846 64.6931C116.036 64.9522 120.791 65.0456 121.313 60.8364C121.486 59.499 121.497 54.3464 121.19 53.1438L121.2 53.1334ZM118.766 60.1314C118.623 61.1163 117.734 62.0494 116.813 62.3293C116.016 62.5677 113.633 62.4848 112.876 62.1738C112.161 61.8835 111.567 61.0541 111.363 60.3284C111.118 59.4264 111.128 54.9374 111.383 54.0354C111.649 53.1023 112.508 52.3144 113.469 52.1693C114.134 52.076 116.2 52.0656 116.813 52.2107C117.938 52.4803 118.705 53.5481 118.797 54.6782C118.899 55.9223 118.94 58.9392 118.766 60.1314Z" fill="#0B0B0D"/>
<path d="M255.81 64.5583C253.346 64.1229 251.72 61.9354 253.326 59.6131L253.939 60.8779C255.187 63.0758 261.639 63.2727 261.619 60.1522C261.619 58.2446 258.183 58.4208 256.884 58.1824C254.481 57.7469 252.221 56.2644 252.487 53.4859C252.865 49.4841 258.704 48.9658 261.619 50.1062C263.786 50.9563 264.134 53.092 262.703 54.8337C262.478 53.4341 261.711 52.5425 260.351 52.19C259.113 51.879 256.005 51.7235 255.32 53.0712C254.614 54.4708 255.78 55.321 256.986 55.6009C259.788 56.254 264.093 55.6631 264.165 59.8515C264.247 64.5998 259.461 65.2011 255.81 64.5583Z" fill="#0B0B0D"/>
<path d="M136.365 64.4857H134.647C134.534 64.4857 134.064 64.1125 133.962 63.9777C133.767 63.7082 133.645 63.2624 133.614 62.941C133.317 59.9863 133.89 56.5443 133.614 53.5792C133.43 51.5887 129.565 51.8686 128.256 52.3351C127.969 52.4388 127.663 52.584 127.427 52.7913V64.4857H125.71C125.393 64.4857 124.677 63.7704 124.677 63.4386V49.8573C126.027 50.3135 127.121 50.4483 128.542 50.2409C129.135 50.158 129.738 49.9092 130.321 49.8573C132.581 49.65 136.222 50.3861 136.457 53.1853C136.692 55.9119 136.436 59.3746 136.354 62.1427C136.334 62.9202 136.385 63.7082 136.354 64.4857H136.365Z" fill="#0B0B0D"/>
<path d="M249.644 52.7913V64.4857H247.824C247.609 64.4857 246.883 63.7497 246.894 63.4386C246.689 60.3491 247.149 56.9383 246.894 53.8799C246.73 51.8997 244.429 51.9205 242.916 52.0345C242.538 52.0656 240.615 52.4285 240.615 52.8846V64.4754H238.897C238.57 64.4754 237.864 63.6563 237.864 63.335V49.847C238.56 50.0232 239.132 50.3861 239.879 50.4483C241.689 50.6038 243.376 49.7018 245.278 49.847C246.648 49.9507 249.644 51.0807 249.644 52.781V52.7913Z" fill="#0B0B0D"/>
<path d="M199.968 51.1014V64.4857C199.334 64.4235 198.802 64.1332 198.158 64.0814C195.203 63.8429 191.818 65.5432 189.129 63.1898C188.812 62.9099 188.198 62.0494 188.198 61.6451V49.9507H190.019C190.285 49.9507 190.99 50.7489 190.939 51.1014C191.154 54.1805 190.683 57.6121 190.939 60.6498C191.113 62.6507 193.823 62.5263 195.285 62.3604C195.612 62.3189 197.228 61.925 197.228 61.5414V49.9507H199.048C199.293 49.9507 199.978 50.8319 199.978 51.0911L199.968 51.1014Z" fill="#0B0B0D"/>
<path d="M206.758 64.4131C204.038 63.76 203.527 61.8213 203.404 59.2502C203.21 55.3106 203.547 51.2155 203.404 47.2551H205.224C205.695 47.2551 206.257 48.2711 206.257 48.6962V50.6349H211.953V52.1796C211.953 52.5321 211.083 53.2267 210.726 53.2267H206.257V60.3388C206.257 61.0334 207.341 61.9768 207.954 62.1945C209.959 62.9202 212.628 61.7695 212.638 59.385C212.975 59.1465 213.466 60.7327 213.497 60.9504C214.008 64.7034 209.355 65.0145 206.768 64.3924L206.758 64.4131Z" fill="#0B0B0D"/>
<path d="M95.912 62.0494C95.5746 65.367 89.0301 65.2529 87.1282 63.3972C86.6067 62.8788 85.9011 61.3859 85.9011 60.6602V47.2759H87.619C87.9258 47.2759 88.6518 48.0949 88.6518 48.4163V50.6556H94.3475V52.2004C94.3475 52.5321 93.5397 53.2475 93.2227 53.2475H88.662V60.1625C88.662 60.2144 88.8256 60.6394 88.8665 60.7431C90.0016 63.5838 95.1758 62.6092 95.0428 59.4161C95.8916 59.7375 96.004 61.2615 95.9222 62.0494H95.912Z" fill="#0B0B0D"/>
<path d="M186.419 63.9363C185.069 65.0248 183.014 64.776 182.063 63.2831C181.899 63.0136 181.419 61.9043 181.419 61.6451V43.1808C181.869 43.2222 182.411 43.1186 182.84 43.1808C183.505 43.2741 184.088 43.8443 184.17 44.5182V61.531C184.292 62.2879 184.63 62.9825 185.274 63.3972L186.419 63.9259V63.9363Z" fill="#0B0B0D"/>
<path d="M106.884 53.6622C106.833 53.7762 106.179 54.8441 106.127 54.3879C106.127 53.9628 106.046 53.3926 105.79 53.0401C105.003 51.993 100.728 52.0552 100.728 52.8017V64.4961H99.0104C98.6627 64.4961 97.9776 63.5838 97.9776 63.252V49.8677C98.0696 49.7744 99.0513 50.3965 99.2967 50.469C100.299 50.7593 101.69 50.0751 102.753 49.9818C103.898 49.8781 106.066 50.0129 106.864 50.9667C107.447 51.6509 107.232 52.9054 106.884 53.6829V53.6622Z" fill="#0B0B0D"/>
<path d="M218.333 50.9978V64.3821H216.616C216.288 64.3821 215.583 63.563 215.583 63.2416V49.8574H217.198C217.546 49.8574 218.323 50.6245 218.323 50.9978H218.333Z" fill="#0B0B0D"/>
<path d="M218.333 44.7773H215.583V47.5662H218.333V44.7773Z" fill="#0B0B0D"/>
</g>
<defs>
<clipPath id="clip0_4053_81">
<rect width="263.877" height="64.6095" fill="white" transform="translate(0.28891 0.695221)"/>
</clipPath>
</defs>
</svg>
