<svg width="242" height="46" viewBox="0 0 242 46" fill="none" xmlns="http://www.w3.org/2000/svg">
<g clip-path="url(#clip0_528_192)">
<path d="M35.3499 27.6042V39.4029C35.3499 40.8983 35.3654 42.3917 35.3383 43.8871C35.3171 45.0811 34.7799 45.7747 33.4739 45.7321C32.1119 45.6896 30.7479 45.6742 29.3858 45.7321C28.0547 45.7804 27.5813 45.0559 27.5369 43.8793C27.5137 43.2205 27.5369 42.5598 27.5369 41.901C27.5369 35.3966 27.5369 28.8922 27.5369 22.3878C27.5369 20.1196 27.8305 19.853 30.1373 19.855C37.3012 19.855 44.4657 19.855 51.6308 19.855C54.5288 19.855 55.5103 18.9991 55.7846 16.1224C55.8861 15.0334 55.8686 13.9366 55.7325 12.8515C55.4659 10.707 54.3801 9.78733 52.1892 9.78346C44.8927 9.77187 37.5962 9.77187 30.2997 9.78346C27.8228 9.78346 27.5369 9.50141 27.535 6.97242C27.535 6.00642 27.5156 5.04043 27.535 4.07443C27.5717 2.42064 28.0218 1.96661 29.6602 1.96661C37.5813 1.96661 45.4832 1.93956 53.3948 1.96661C59.0613 1.98786 62.0366 4.36809 63.19 9.91485C63.9628 13.6591 63.9261 17.4323 62.8229 21.1204C61.5942 25.2375 58.7773 27.4265 54.5037 27.496C48.6594 27.5926 42.8132 27.583 36.967 27.6197L35.3499 27.6042Z" fill="#263F22"/>
<path d="M61.3911 45.7245C58.2999 45.7245 58.1299 45.4521 59.2659 42.5772C64.633 29.0417 69.9782 15.5009 75.3015 1.95507C75.8811 0.473232 76.6365 0.0230792 78.1995 0.00182721C81.7756 -0.0445407 81.9186 0.45586 80.6435 3.63786C75.3575 16.8295 70.1779 30.0618 64.9576 43.2805C64.0013 45.7303 63.9974 45.7283 61.3911 45.7245Z" fill="#263F22"/>
<path d="M6.52043 25.8465C8.71003 26.578 10.8996 27.3103 13.0892 28.0431C15.4617 28.8353 17.813 29.6969 20.2125 30.3866C21.6267 30.7943 22.3377 31.4879 22.1252 33.0026C22.0595 33.4778 22.1252 33.9686 22.1116 34.4516C22.073 35.9102 21.4895 36.372 20.1062 35.916C16.0684 34.5829 12.044 33.2112 8.0158 31.8492C6.10505 31.2039 4.18272 30.5876 2.29322 29.8882C0.542835 29.241 0.0424365 28.4566 0.0115245 26.6154C-0.0599594 22.307 0.0984822 22.0791 4.15954 20.6938C9.31153 18.9357 14.459 17.1802 19.602 15.4272C21.561 14.7606 22.1136 15.1374 22.1136 17.1544C22.1 20.3325 22.4749 20.0524 19.3334 21.1073C15.4694 22.4172 11.6054 23.7271 7.74145 25.037C7.33766 25.1741 6.94548 25.3441 6.54749 25.4987L6.52043 25.8465Z" fill="#263F22"/>
<path d="M96.3794 25.46C94.1827 24.7278 92.3724 24.1076 90.5602 23.528C87.6467 22.562 84.741 21.569 81.8063 20.6706C80.7244 20.3402 80.3631 19.7046 80.3341 18.6517C80.2336 14.8147 80.4153 14.6525 84.059 15.858C89.3037 17.5955 94.544 19.3504 99.7797 21.1227C101.957 21.8569 102.363 22.4577 102.37 24.7935C102.386 29.0903 102.37 29.0748 98.3249 30.4562C93.1375 32.222 87.9597 34.0188 82.7781 35.802C80.8616 36.4608 80.394 36.1169 80.3554 34.1347C80.2781 30.3789 80.4288 31.0435 83.2881 30.0543C87.2217 28.6807 91.1746 27.3689 95.1178 26.0242C95.4191 25.9121 95.7032 25.7614 96.3794 25.46Z" fill="#263F22"/>
<path d="M121.893 18.6863V27.1215H116.961V3.17822H126.3C128.103 3.17822 129.685 3.5073 131.045 4.16547C132.349 4.76765 133.445 5.74328 134.194 6.9688C134.939 8.2184 135.32 9.65082 135.296 11.1052C135.296 13.4506 134.493 15.3002 132.886 16.6539C131.28 18.0076 129.058 18.6851 126.219 18.6863H121.893ZM121.893 14.6891H126.3C127.606 14.6891 128.601 14.3825 129.285 13.7694C129.969 13.1563 130.312 12.2792 130.313 11.138C130.313 9.96468 129.968 9.01607 129.277 8.29221C128.587 7.56836 127.633 7.19548 126.416 7.17358H121.893V14.6891Z" fill="#263F22"/>
<path d="M152.642 22.1891H143.992L142.348 27.1215H137.097L146.009 3.17822H150.582L159.543 27.1215H154.297L152.642 22.1891ZM145.325 18.1918H151.314L148.302 9.23116L145.325 18.1918Z" fill="#263F22"/>
<path d="M174.017 18.356H170.087V27.1215H165.153V3.17822H174.05C176.883 3.17822 179.065 3.80868 180.595 5.06963C182.125 6.33058 182.892 8.11189 182.896 10.4135C182.896 12.048 182.543 13.4101 181.836 14.4997C181.129 15.5894 180.057 16.4588 178.621 17.1079L183.802 26.8916V27.1215H178.507L174.017 18.356ZM170.087 14.3606H174.067C175.305 14.3606 176.264 14.0457 176.944 13.4159C177.624 12.786 177.964 11.9173 177.964 10.8096C177.964 9.67875 177.642 8.79067 176.998 8.14538C176.354 7.50009 175.37 7.17809 174.046 7.17938H170.083L170.087 14.3606Z" fill="#263F22"/>
<path d="M203.532 22.1891H194.883L193.237 27.1215H187.991L196.905 3.17822H201.477L210.439 27.1215H205.194L203.532 22.1891ZM196.216 18.1918H202.205L199.191 9.23116L196.216 18.1918Z" fill="#263F22"/>
<path d="M222.491 3.17822L228.642 20.543L234.759 3.17822H241.231V27.1215H236.281V20.5758L236.774 9.27946L230.311 27.1215H226.934L220.489 9.29491L220.982 20.5758V27.1215H216.049V3.17822H222.491Z" fill="#263F22"/>
<path d="M119.687 37.8999C118.591 37.5843 117.794 37.1979 117.295 36.7407C117.055 36.5285 116.863 36.2665 116.734 35.973C116.604 35.6794 116.54 35.3613 116.546 35.0405C116.54 34.6754 116.62 34.314 116.779 33.9853C116.938 33.6565 117.172 33.3695 117.461 33.1472C118.071 32.6475 118.863 32.3976 119.84 32.3976C120.455 32.3868 121.065 32.5191 121.621 32.784C122.117 33.0183 122.536 33.3872 122.832 33.8485C123.115 34.2916 123.264 34.8067 123.261 35.3323H121.977C121.99 35.0746 121.947 34.8172 121.851 34.5779C121.754 34.3386 121.607 34.1233 121.418 33.9471C121.046 33.6109 120.52 33.4428 119.84 33.4428C119.21 33.4428 118.719 33.5819 118.366 33.8601C118.192 33.9973 118.053 34.174 117.961 34.3756C117.869 34.5772 117.826 34.7979 117.836 35.0193C117.836 35.214 117.882 35.406 117.969 35.5801C118.056 35.7541 118.183 35.9054 118.339 36.022C118.675 36.2938 119.245 36.5437 120.05 36.7716C120.71 36.94 121.345 37.1919 121.94 37.5212C122.35 37.7519 122.698 38.0796 122.952 38.4756C123.178 38.8656 123.291 39.3101 123.281 39.7604C123.291 40.1258 123.214 40.4883 123.054 40.817C122.894 41.1457 122.657 41.4308 122.363 41.648C121.751 42.1194 120.933 42.3557 119.907 42.357C119.266 42.3609 118.63 42.2292 118.043 41.9706C117.51 41.7501 117.048 41.3872 116.708 40.9216C116.397 40.4796 116.234 39.951 116.24 39.4107H117.523C117.513 39.677 117.566 39.9419 117.679 40.1833C117.792 40.4246 117.961 40.6354 118.172 40.7979C118.605 41.1379 119.185 41.308 119.911 41.308C120.585 41.308 121.1 41.1701 121.457 40.8945C121.631 40.7649 121.771 40.5948 121.865 40.3989C121.959 40.203 122.004 39.9872 121.996 39.7701C122.007 39.56 121.968 39.3504 121.881 39.1587C121.794 38.9671 121.663 38.7991 121.497 38.6688C121.165 38.41 120.562 38.1536 119.687 37.8999Z" fill="#263F22"/>
<path d="M139.187 37.6875C139.206 38.541 139.043 39.3888 138.708 40.174C138.428 40.8361 137.957 41.3998 137.355 41.793C136.742 42.1743 136.03 42.3689 135.308 42.3533C134.59 42.3666 133.885 42.1713 133.277 41.7911C132.673 41.4006 132.195 40.8428 131.901 40.1856C131.563 39.4273 131.391 38.6049 131.399 37.7744V37.0751C131.382 36.2266 131.548 35.3845 131.886 34.606C132.172 33.9357 132.65 33.365 133.26 32.9657C133.868 32.5812 134.575 32.3831 135.294 32.3958C136.018 32.3814 136.73 32.5766 137.346 32.958C137.955 33.3522 138.431 33.9203 138.714 34.5886C139.048 35.374 139.211 36.2216 139.193 37.0751L139.187 37.6875ZM137.916 37.0615C137.916 35.9126 137.685 35.031 137.224 34.4166C137.002 34.1169 136.71 33.8761 136.373 33.7154C136.036 33.5548 135.665 33.4791 135.292 33.4951C134.923 33.4811 134.556 33.5578 134.224 33.7185C133.891 33.8791 133.603 34.1188 133.385 34.4166C132.922 35.031 132.683 35.8836 132.668 36.9746V37.6875C132.668 38.8003 132.903 39.6755 133.372 40.3131C133.589 40.6198 133.88 40.8675 134.217 41.0341C134.554 41.2007 134.928 41.2809 135.304 41.2675C135.673 41.2854 136.04 41.2125 136.374 41.0552C136.709 40.8979 136.999 40.661 137.22 40.3652C137.672 39.7638 137.905 38.9021 137.918 37.7802L137.916 37.0615Z" fill="#263F22"/>
<path d="M149.204 41.1745H153.797V42.2197H147.916V32.5288H149.2L149.204 41.1745Z" fill="#263F22"/>
<path d="M168.53 32.5288V39.1188C168.543 39.531 168.474 39.9416 168.326 40.3265C168.178 40.7114 167.954 41.0628 167.668 41.36C167.099 41.9422 166.326 42.2687 165.35 42.3395L165.01 42.353C163.949 42.353 163.104 42.0664 162.475 41.4933C161.847 40.9201 161.525 40.1325 161.509 39.1305V32.5288H162.773V39.0976C162.773 39.7996 162.966 40.3438 163.352 40.7302C163.739 41.1165 164.287 41.3097 165.002 41.3097C165.717 41.3097 166.279 41.1165 166.664 40.7302C167.048 40.3438 167.243 39.8008 167.243 39.0995V32.5307L168.53 32.5288Z" fill="#263F22"/>
<path d="M184.057 33.574H180.953V42.2197H179.681V33.574H176.573V32.5288H184.067L184.057 33.574Z" fill="#263F22"/>
<path d="M193.681 42.2197H192.404V32.5288H193.681V42.2197Z" fill="#263F22"/>
<path d="M210.286 37.6875C210.305 38.541 210.141 39.3886 209.807 40.174C209.526 40.8357 209.056 41.3992 208.455 41.793C207.84 42.1743 207.128 42.369 206.405 42.3533C205.688 42.3664 204.984 42.1711 204.376 41.7911C203.772 41.4006 203.294 40.8428 203.001 40.1856C202.661 39.4276 202.49 38.605 202.498 37.7745V37.0751C202.482 36.2267 202.648 35.3846 202.985 34.606C203.271 33.9353 203.749 33.3645 204.359 32.9657C204.966 32.5808 205.672 32.3827 206.391 32.3958C207.116 32.3812 207.829 32.5764 208.445 32.958C209.054 33.3522 209.53 33.9203 209.813 34.5886C210.146 35.3743 210.31 36.2217 210.292 37.0751L210.286 37.6875ZM209.015 37.0616C209.015 35.9127 208.784 35.031 208.323 34.4166C208.101 34.1169 207.809 33.8761 207.472 33.7155C207.135 33.5548 206.764 33.4791 206.391 33.4951C206.022 33.4811 205.655 33.5578 205.323 33.7185C204.991 33.8792 204.703 34.1189 204.484 34.4166C204.021 35.031 203.782 35.8837 203.769 36.9746V37.6875C203.769 38.8004 204.004 39.6755 204.473 40.3131C204.69 40.62 204.981 40.868 205.318 41.0346C205.655 41.2013 206.029 41.2813 206.405 41.2675C206.774 41.2856 207.141 41.2128 207.476 41.0555C207.81 40.8982 208.1 40.6611 208.321 40.3653C208.775 39.7638 209.008 38.9021 209.021 37.7803L209.015 37.0616Z" fill="#263F22"/>
<path d="M226.465 42.2197H225.18L220.302 34.7525V42.2197H219.013V32.5288H220.296L225.188 40.0288V32.5288H226.459L226.465 42.2197Z" fill="#263F22"/>
<path d="M238.404 37.8999C237.308 37.5843 236.511 37.1979 236.013 36.7407C235.772 36.5282 235.581 36.2662 235.452 35.9727C235.322 35.6792 235.258 35.3612 235.263 35.0405C235.257 34.6754 235.337 34.314 235.496 33.9853C235.655 33.6565 235.889 33.3695 236.179 33.1472C236.789 32.6474 237.583 32.3976 238.559 32.3976C239.174 32.3869 239.783 32.5192 240.338 32.784C240.834 33.0183 241.254 33.3872 241.55 33.8485C241.832 34.2915 241.981 34.8067 241.979 35.3323H240.694C240.707 35.0746 240.664 34.8171 240.568 34.5779C240.472 34.3386 240.324 34.1233 240.136 33.947C239.763 33.6109 239.238 33.4428 238.559 33.4428C237.928 33.4428 237.437 33.5819 237.085 33.8601C236.91 33.9969 236.771 34.1736 236.679 34.3753C236.587 34.577 236.545 34.7978 236.556 35.0193C236.555 35.214 236.6 35.4062 236.688 35.5803C236.775 35.7545 236.902 35.9057 237.058 36.022C237.391 36.2938 237.961 36.5436 238.768 36.7716C239.427 36.9399 240.062 37.1919 240.657 37.5212C241.068 37.7514 241.416 38.0792 241.67 38.4756C241.897 38.8636 242.013 39.3069 242.004 39.7565C242.014 40.122 241.936 40.4846 241.776 40.8132C241.616 41.1419 241.378 41.427 241.084 41.6441C240.472 42.1155 239.654 42.3518 238.629 42.3531C237.987 42.3567 237.352 42.2251 236.764 41.9667C236.232 41.7462 235.771 41.3832 235.431 40.9177C235.119 40.4763 234.955 39.9474 234.962 39.4068H236.246C236.236 39.6731 236.289 39.938 236.402 40.1794C236.515 40.4207 236.684 40.6315 236.896 40.794C237.328 41.1341 237.908 41.3041 238.634 41.3041C239.308 41.3041 239.823 41.1663 240.18 40.8906C240.354 40.761 240.494 40.5909 240.588 40.395C240.682 40.1991 240.727 39.9833 240.719 39.7662C240.73 39.5559 240.691 39.3461 240.604 39.1544C240.516 38.9627 240.384 38.7948 240.219 38.665C239.884 38.4086 239.279 38.1536 238.404 37.8999Z" fill="#263F22"/>
</g>
<defs>
<clipPath id="clip0_528_192">
<rect width="242" height="45.7342" fill="white"/>
</clipPath>
</defs>
</svg>
