<svg width="138" height="48" viewBox="0 0 138 48" fill="none" xmlns="http://www.w3.org/2000/svg">
<g clip-path="url(#clip0_16265_11162)">
<path fill-rule="evenodd" clip-rule="evenodd" d="M19.8441 27.6228L19.8441 27.6228L19.8441 27.6228C19.1602 27.0413 18.5368 26.5114 18.025 25.7106C17.4221 24.9092 17.0199 23.8044 17.0199 22.802C17.0199 21.8004 17.321 20.9981 17.8235 20.2975C18.1101 19.8397 18.403 19.382 18.6893 18.9347L18.6893 18.9347C19.0565 18.3611 19.4127 17.8046 19.7305 17.2865C19.7305 17.2857 19.7303 17.285 19.73 17.2845L19.7298 17.2835C19.9997 16.8377 20.2696 16.366 20.5502 15.8391C20.5992 15.7493 20.6502 15.6582 20.7019 15.5657C21.2449 14.5958 21.8692 13.4806 21.141 12.22C21.141 12.22 21.1372 12.2139 21.1311 12.2033C21.1121 12.1714 21.0931 12.1396 21.0725 12.107L21.0612 12.0896C21.046 12.066 21.0325 12.0452 21.0239 12.0342C21.0239 12.0342 21.0236 12.0337 21.0233 12.0333C21.023 12.0329 21.0227 12.0327 21.0224 12.0327L21.0208 12.0312C20.9912 11.997 20.9509 12.0001 20.9509 12.0001C20.9174 12.0001 20.8923 12.0168 20.8695 12.0425H20.8688C20.8551 12.0592 20.8414 12.0789 20.8269 12.1017C20.7555 12.2018 18.0243 15.9558 12.2121 23.7589C12.2052 23.7659 12.1991 23.7732 12.193 23.7806L12.1832 23.7923C12.0677 23.9659 12 24.1759 12 24.4322V24.4527C12 24.7689 12.0867 25.0426 12.241 25.2678L12.2357 25.2708L15.414 30.4231C15.7067 30.9751 15.8002 32.0033 15.8117 32.8282C15.8162 33.1778 15.8155 33.9588 15.8147 34.4691L15.8147 34.4691C15.8132 34.5017 15.8117 34.5343 15.8117 34.5669C15.8117 35.0924 16.0953 35.5511 16.5188 35.799C16.5279 35.8059 16.5385 35.8127 16.5507 35.8188C16.7537 35.9272 16.9028 35.9689 17.0731 35.9848C17.121 35.9909 17.1696 35.9939 17.2191 35.9947C17.3303 36.0014 17.4238 36.0003 17.5423 35.999H17.5423C17.5971 35.9984 17.6573 35.9977 17.727 35.9977H17.73L21.4672 35.9947V31.6075C21.4755 31.3065 21.4793 29.8483 21.3752 29.5223C21.2619 29.0082 21.0383 28.6882 20.6384 28.3175C20.3669 28.0672 20.1012 27.8414 19.8441 27.6228ZM24.3726 27.6228C24.1155 27.8414 23.8498 28.0672 23.5783 28.3175C23.1784 28.6882 22.9549 29.0082 22.8408 29.5223C22.7374 29.8483 22.7404 31.3065 22.7496 31.6075V35.9947L26.4875 35.9977H26.4897C26.5594 35.9977 26.6194 35.9984 26.6742 35.999L26.6743 35.999H26.6743H26.6744C26.7929 36.0003 26.8866 36.0014 26.9984 35.9947C27.0471 35.9939 27.0957 35.9909 27.1436 35.9848C27.314 35.9689 27.463 35.9272 27.666 35.8188C27.6782 35.8127 27.6888 35.8059 27.6979 35.799C28.1215 35.5511 28.4058 35.0924 28.4058 34.5669C28.4058 34.5343 28.4043 34.5017 28.402 34.4691C28.4013 33.9588 28.4005 33.1778 28.4051 32.8282C28.4165 32.0033 28.51 30.9751 28.802 30.4231L31.9802 25.2708L31.9757 25.2678C32.1293 25.0426 32.2175 24.7689 32.2175 24.4527V24.4322C32.2175 24.1759 32.149 23.9659 32.0335 23.7923L32.0237 23.7806C32.0176 23.7732 32.0116 23.7659 32.0046 23.7589C26.1924 15.9558 23.4605 12.2018 23.3898 12.1017C23.3761 12.0789 23.3616 12.0592 23.348 12.0425H23.3472C23.3244 12.0168 23.2993 12.0001 23.2651 12.0001C23.2651 12.0001 23.2255 11.997 23.1959 12.0312L23.1944 12.0327C23.1936 12.0327 23.1928 12.0342 23.1928 12.0342C23.1822 12.0478 23.1632 12.0767 23.1449 12.107C23.1236 12.1396 23.1046 12.1714 23.0856 12.2033C23.0795 12.2139 23.0757 12.22 23.0757 12.22C22.3472 13.4812 22.9724 14.5969 23.5161 15.5671L23.5161 15.5671C23.5677 15.6591 23.6185 15.7497 23.6673 15.8391C23.9479 16.366 24.217 16.8377 24.4877 17.2835C24.4877 17.2838 24.4875 17.2841 24.4872 17.2845C24.4867 17.285 24.4862 17.2857 24.4862 17.2865C24.804 17.8045 25.1602 18.3609 25.5272 18.9344L25.5274 18.9347L25.5274 18.9347L25.5275 18.9348C25.8138 19.3821 26.1067 19.8397 26.3932 20.2975C26.8958 20.9981 27.1969 21.8004 27.1969 22.802C27.1969 23.8044 26.7946 24.9092 26.1917 25.7106C25.6799 26.5114 25.0566 27.0413 24.3726 27.6228ZM84.6338 33.7775H88.4439V14.6523H84.6338V33.7775ZM53.1067 25.2937C53.6177 25.6629 54.0313 26.1293 54.3469 26.6919C54.6624 27.2552 54.8206 27.9483 54.8206 28.7717C54.8206 29.7688 54.5932 30.6143 54.1355 31.3073C53.6793 32.0003 53.0854 32.5637 52.3578 32.9974C51.6286 33.4311 50.8188 33.7443 49.9269 33.9392C49.0343 34.134 48.1546 34.2318 47.2847 34.2318C46.2187 34.2318 45.234 34.1128 44.3323 33.8747C43.429 33.6366 42.6466 33.2734 41.9828 32.7859C41.3197 32.2983 40.7974 31.6925 40.4164 30.9661C40.0363 30.2404 39.8348 29.3791 39.8135 28.382H43.5248C43.6335 29.4655 44.0456 30.2238 44.7619 30.6567C45.4781 31.0904 46.335 31.3073 47.3334 31.3073C47.6801 31.3073 48.0762 31.28 48.5218 31.2262C48.9659 31.1716 49.3848 31.0685 49.7749 30.9176C50.0638 30.8053 50.3132 30.6544 50.5246 30.4656C50.866 30.1442 51.0789 29.6892 51.0789 29.1842C51.0789 28.6754 50.8622 28.2167 50.517 27.8937L50.5176 27.8936L50.5185 27.8929C50.1984 27.6056 49.7931 27.3728 49.3027 27.1961C48.7925 27.0111 48.2123 26.8541 47.5615 26.7245C46.9099 26.5941 46.2483 26.4545 45.5754 26.3021C44.8805 26.1505 44.2136 25.9662 43.5727 25.7494C42.9332 25.5325 42.3584 25.2414 41.8474 24.8721C41.338 24.5036 40.9312 24.0327 40.6271 23.4587C40.3229 22.8847 40.1716 22.1743 40.1716 21.3296C40.1716 20.4197 40.3944 19.6554 40.8392 19.0382C41.2832 18.4202 41.8474 17.9228 42.5317 17.5429C43.2153 17.1646 43.9749 16.8992 44.8105 16.7468C45.6446 16.5959 46.443 16.5193 47.2034 16.5193C48.0709 16.5193 48.9005 16.6118 49.6935 16.796C50.4858 16.9795 51.202 17.2783 51.8415 17.6893C52.4825 18.101 53.014 18.6378 53.4375 19.2982C53.861 19.9594 54.1256 20.7556 54.2351 21.6867H50.3611C50.187 20.7988 49.7794 20.2028 49.14 19.8995C48.4998 19.5962 47.7675 19.4438 46.9433 19.4438C46.6817 19.4438 46.373 19.4666 46.0149 19.5098C45.688 19.5492 45.3785 19.6213 45.088 19.7236C44.4851 19.9617 44.0585 20.5486 44.0585 21.2348C44.0585 21.8073 44.3551 22.3092 44.8022 22.5981C44.9162 22.6679 45.0386 22.7331 45.1686 22.7945C45.1711 22.7954 45.1984 22.8076 45.232 22.8225C45.2823 22.8449 45.3464 22.8735 45.361 22.8794L45.395 22.8927L45.3952 22.8928C45.4542 22.9159 45.5702 22.9614 45.5967 22.9712C46.1084 23.1547 46.6909 23.3124 47.3433 23.442C47.9964 23.5717 48.6708 23.7127 49.3681 23.8644C50.0425 24.016 50.7071 24.201 51.3587 24.4171C52.0133 24.634 52.5943 24.9267 53.1067 25.2937ZM123.828 20.6791C124.275 21.0718 124.624 21.5859 124.874 22.2183C125.125 22.8529 125.25 23.6165 125.25 24.509V33.777H121.44V25.9291C121.44 25.4651 121.422 25.0276 121.386 24.6159C121.384 24.5902 121.381 24.5646 121.378 24.5393L121.378 24.5391L121.378 24.5389L121.375 24.5165C121.169 23.4156 120.204 22.5823 119.041 22.5823C118.056 22.5823 117.21 23.1813 116.85 24.035C116.758 24.2686 116.691 24.5196 116.651 24.7903C116.588 25.2103 116.557 25.6342 116.557 26.0626V33.777H112.747V26.0088C112.747 25.5985 112.738 25.1921 112.72 24.7903C112.719 24.7455 112.716 24.7023 112.712 24.6583C112.566 23.4884 111.567 22.5823 110.356 22.5823C110.23 22.5823 110.108 22.5921 109.988 22.6111C109.907 22.6285 109.821 22.649 109.729 22.6748C109.434 22.7544 109.147 22.9068 108.87 23.1297C108.592 23.3534 108.355 23.6749 108.16 24.0942C107.963 24.5135 107.865 25.0632 107.865 25.7411V33.777H104.054V19.9284H104.445H107.865V21.5852C108.332 20.9763 108.881 20.4948 109.514 20.143C110.221 19.7502 111.03 19.5538 111.942 19.5538C112.818 19.5538 113.619 19.7237 114.343 20.0626C115.067 20.4023 115.618 20.9998 115.994 21.8566C116.405 21.2508 116.963 20.7147 117.67 20.2499C118.376 19.7851 119.214 19.5538 120.179 19.5538C120.912 19.5538 121.592 19.6433 122.219 19.8215C122.844 20.0004 123.38 20.2871 123.828 20.6791ZM68.6565 30.6963C68.6565 31.3226 68.6922 31.9201 68.7645 32.4911C68.8352 33.0628 68.9606 33.492 69.1393 33.7771H65.2767C65.2045 33.5625 65.1467 33.3441 65.1011 33.1204C65.057 32.8975 65.025 32.67 65.0076 32.438C64.3993 33.0628 63.6838 33.5011 62.8611 33.7505C62.0384 34 61.0431 34.1228 60.3686 34.1228C59.5317 34.1228 58.9279 33.9828 58.7042 33.931L58.6548 33.9196C57.2542 33.6125 55.9928 32.3516 55.6803 30.8434C55.6385 30.5796 55.6172 30.2983 55.6172 29.9995C55.6172 29.794 55.6271 29.5976 55.6461 29.4104C55.8673 28.0023 56.8277 26.8392 58.118 26.3281C58.118 26.3281 58.432 26.2045 58.6092 26.1567C59.1718 26.0051 59.7398 25.8845 60.3124 25.7951C60.8849 25.7063 61.4483 25.6343 62.0026 25.5805C62.5569 25.5274 63.0489 25.4463 63.4785 25.3393C63.5849 25.3128 63.6868 25.2825 63.7826 25.2499C64.3871 25.027 64.819 24.4461 64.819 23.7645C64.819 23.1139 64.4259 22.5558 63.864 22.3124L63.8647 22.3109C63.8598 22.309 63.8549 22.3069 63.8499 22.3049L63.8431 22.302L63.8351 22.2988C63.4754 22.1441 63.0162 22.0554 62.4459 22.0554C61.9943 22.0554 61.6111 22.107 61.2917 22.204L61.2932 22.2055C60.7374 22.3686 60.2911 22.7848 60.0881 23.3209L60.0873 23.3201C59.9573 23.6667 59.8927 24.0587 59.8569 24.4423H56.0521C56.0521 24.4392 56.0519 24.4361 56.0517 24.4331C56.0515 24.4302 56.0513 24.4275 56.0513 24.4249C56.0513 24.4138 56.0515 24.4027 56.0517 24.3917C56.0519 24.3809 56.0521 24.3702 56.0521 24.3597L56.0527 24.3591L56.0529 24.3587L56.0529 24.3582C56.0734 23.0851 56.6802 21.7005 57.6162 20.9696C57.6283 20.959 57.6405 20.9499 57.6542 20.94L57.6543 20.9399C57.668 20.9293 57.6816 20.9188 57.6952 20.9089C57.7097 20.8983 57.7226 20.8885 57.7355 20.8786L57.7317 20.8748C57.8853 20.7558 58.048 20.6458 58.2191 20.545C58.8274 20.1886 59.5117 19.9338 60.2721 19.7814C61.0317 19.6298 61.7966 19.554 62.5668 19.554C63.2633 19.554 63.9704 19.6032 64.6852 19.7011C65.26 19.7799 65.793 19.9194 66.2865 20.1188C67.4635 20.6511 68.3402 21.7263 68.5926 23.0244C68.6329 23.2511 68.6542 23.4854 68.6542 23.7243C68.6542 23.7341 68.6565 23.7539 68.6565 23.7539V30.6963ZM102.716 32.4911C102.644 31.9201 102.608 31.3226 102.608 30.6963V23.7539C102.608 23.7539 102.606 23.7341 102.606 23.7243C102.606 23.4854 102.584 23.2511 102.544 23.0244C102.291 21.7263 101.415 20.6511 100.238 20.1188C99.7449 19.9194 99.2112 19.7799 98.6371 19.7011C97.9216 19.6032 97.2152 19.554 96.518 19.554C95.7485 19.554 94.9836 19.6298 94.224 19.7814C93.4637 19.9338 92.7786 20.1886 92.1711 20.545C91.9992 20.6458 91.8373 20.7558 91.6829 20.8748L91.6875 20.8786C91.6738 20.8885 91.6609 20.8983 91.6472 20.9089C91.6335 20.9188 91.619 20.9294 91.6053 20.94L91.595 20.9478C91.5856 20.9549 91.5762 20.9618 91.5673 20.9696C90.6321 21.7005 90.0246 23.0851 90.004 24.3582V24.3597C90.0033 24.3809 90.0033 24.4029 90.0033 24.4249V24.4423H93.8081C93.8446 24.0587 93.9092 23.6667 94.0392 23.3201L94.04 23.3209C94.243 22.7848 94.6893 22.3686 95.2444 22.2055L95.2436 22.204C95.563 22.107 95.9462 22.0554 96.3971 22.0554C96.9674 22.0554 97.4274 22.1441 97.7863 22.2988L97.7986 22.3038C97.8045 22.3062 97.8104 22.3087 97.8167 22.3109L97.8159 22.3124C98.3778 22.5558 98.7709 23.1139 98.7709 23.7645C98.7709 24.4461 98.339 25.027 97.7338 25.2499C97.638 25.2825 97.5369 25.3128 97.4297 25.3393C97.0008 25.4463 96.5089 25.5274 95.9538 25.5805C95.3995 25.6343 94.8361 25.7063 94.2643 25.7951C93.691 25.8845 93.1238 26.0051 92.5603 26.1567C92.3832 26.2045 92.0692 26.3281 92.0692 26.3281C90.7788 26.8392 89.8185 28.0023 89.5973 29.4104C89.5782 29.5976 89.5684 29.794 89.5684 29.9995C89.5684 30.2983 89.5904 30.5796 89.6322 30.8434C89.944 32.3516 91.2054 33.6125 92.6067 33.9196L92.6562 33.931C92.8799 33.9828 93.4836 34.1228 94.3198 34.1228C94.9942 34.1228 95.9903 34 96.813 33.7505C97.6349 33.5011 98.3504 33.0628 98.9595 32.438C98.977 32.67 99.0081 32.8975 99.053 33.1204C99.0979 33.3441 99.1564 33.5625 99.2279 33.7771H103.09C102.913 33.492 102.786 33.0628 102.716 32.4911ZM98.8013 28.4231C98.8013 28.6369 98.7793 28.9228 98.7344 29.2799C98.6896 29.6378 98.5687 29.9896 98.3725 30.3384C98.1748 30.6865 97.8707 30.986 97.4601 31.2354C97.048 31.4864 96.467 31.6108 95.7158 31.6108C95.4542 31.6108 95.1205 31.5895 94.8338 31.5387C94.7167 31.5175 94.576 31.4682 94.576 31.4682C94.1685 31.3264 93.8286 31.0421 93.6142 30.6766C93.5047 30.4908 93.4279 30.2838 93.3914 30.0632V30.0594C93.3838 30.0154 93.3792 29.9707 93.3762 29.9252C93.3724 29.8752 93.3701 29.8244 93.3701 29.7728C93.3701 29.7243 93.3724 29.675 93.3762 29.6265C93.377 29.6083 93.3777 29.5901 93.3792 29.5719C93.3884 29.4953 93.4294 29.3141 93.434 29.3004C93.5899 28.7294 94.021 28.2715 94.576 28.0781V28.0796C94.6125 28.0667 94.649 28.0554 94.687 28.0448C95.3113 27.8742 96.1599 27.7301 96.5476 27.6732C96.6202 27.6627 96.692 27.6526 96.7631 27.6426C96.9894 27.6109 97.2084 27.5802 97.419 27.5398C97.6973 27.4852 97.9558 27.4192 98.1976 27.3388C98.4386 27.2585 98.6401 27.147 98.8013 27.0029V28.4231ZM64.8499 28.4231C64.8499 28.6369 64.8271 28.9228 64.7823 29.2799C64.7374 29.6378 64.6173 29.9896 64.4203 30.3384C64.2234 30.6865 63.9193 30.986 63.5087 31.2354C63.0966 31.4864 62.5156 31.6108 61.7637 31.6108C61.5021 31.6108 61.1691 31.5895 60.8816 31.5387C60.7653 31.5175 60.6239 31.4682 60.6239 31.4682C60.2171 31.3264 59.8765 31.0421 59.6628 30.6766C59.5533 30.4908 59.4758 30.2838 59.44 30.0632C59.44 30.0624 59.4398 30.0619 59.4396 30.0613L59.4394 30.0603L59.4393 30.0594C59.4317 30.0154 59.4279 29.9707 59.4248 29.9252C59.421 29.8752 59.418 29.8244 59.418 29.7728C59.418 29.7243 59.421 29.675 59.4241 29.6265C59.4248 29.6083 59.4263 29.5902 59.4278 29.5721L59.4279 29.5719C59.437 29.4953 59.478 29.3141 59.4818 29.3004C59.6377 28.7294 60.0688 28.2715 60.6239 28.0781V28.0796C60.6604 28.0667 60.6976 28.0554 60.7349 28.0448C61.3599 27.8742 62.2085 27.7301 62.5955 27.6732C62.6687 27.6626 62.7412 27.6524 62.813 27.6424C63.0389 27.6107 63.2576 27.58 63.4676 27.5398C63.7459 27.4852 64.0044 27.4192 64.2455 27.3388C64.4872 27.2585 64.688 27.147 64.8499 27.0029V28.4231ZM82.9477 22.921C82.7956 22.2166 82.5318 21.6176 82.1561 21.1262C81.7805 20.6356 81.2665 20.252 80.6134 19.9745C79.961 19.6985 79.1246 19.5597 78.105 19.5597C77.5522 19.5597 77.007 19.6469 76.471 19.819C75.5479 20.1299 74.745 20.7001 74.1466 21.4417C74.0873 21.5228 74.0287 21.6062 73.9725 21.6934V19.9214H70.1631V19.9343V22.6435V33.7836H73.9732V26.5242C73.9732 25.1138 74.2051 24.1001 74.6705 23.4836C74.7244 23.4123 74.783 23.3456 74.8438 23.2827L74.8408 23.2811C75.1464 22.9293 75.5449 22.6617 75.9988 22.5161C76.2345 22.4425 76.4862 22.4023 76.7462 22.4023C77.8639 22.4023 78.8113 23.1265 79.1451 24.1304L79.1474 24.1296C79.2926 24.6225 79.3656 25.2329 79.3656 25.9615V33.7836H83.175V25.2647C83.175 24.4079 83.0997 23.6269 82.9477 22.921ZM22.1121 26.7183C24.3064 26.7183 26.0857 24.9418 26.0857 22.7505C26.0857 20.5591 24.3064 18.7833 22.1121 18.7833C19.9169 18.7833 18.1377 20.5591 18.1377 22.7505C18.1377 24.9418 19.9169 26.7183 22.1121 26.7183Z" fill="#0075C9"/>
</g>
<defs>
<clipPath id="clip0_16265_11162">
<rect width="114" height="24" fill="white" transform="translate(12 12)"/>
</clipPath>
</defs>
</svg>
